<?xml version="1.0" encoding="UTF-8"?>
<svg width="258px" height="233px" viewBox="0 0 258 233" version="1.1" xmlns="http://www.w3.org/2000/svg" xmlns:xlink="http://www.w3.org/1999/xlink">
    <title>Thumbs Up </title>
    <defs>
        <polygon id="path-1" points="0.204395664 0.00954011286 171.632694 0.00954011286 171.632694 203.999899 0.204395664 203.999899"></polygon>
        <polygon id="path-3" points="-9.09494702e-13 0 80.9130879 0 80.9130879 112.882144 -9.09494702e-13 112.882144"></polygon>
        <polygon id="path-5" points="0 0 80.9130414 0 80.9130414 28.9724032 0 28.9724032"></polygon>
        <polygon id="path-7" points="0.445330876 0.0103422721 100.633235 0.0103422721 100.633235 204 0.445330876 204"></polygon>
    </defs>
    <g id="Banking-App" stroke="none" stroke-width="1" fill="none" fill-rule="evenodd">
        <g id="Account-Created-Screen" transform="translate(-78, -110)">
            <g id="Thumbs-Up-" transform="translate(79.1793, 110.8375)">
                <g transform="translate(127.7884, 115.4643) rotate(-7) translate(-127.7884, -115.4643)translate(11.5776, 13.3471)">
                    <g id="Group-3" transform="translate(60.4216, 0)">
                        <mask id="mask-2" fill="white">
                            <use xlink:href="#path-1"></use>
                        </mask>
                        <g id="Clip-2"></g>
                        <path d="M160.684591,120.152125 C163.774531,123.196254 165.737382,127.596492 165.737382,132.486423 C165.737382,140.157663 160.932569,146.630112 154.477675,148.503457 C157.35413,151.278231 159.182271,155.337691 159.182271,159.843897 L159.182271,160.355064 C159.182271,167.203302 154.987149,173.015668 149.283182,174.846533 C152.514358,177.706734 154.597469,182.078029 154.597469,186.967961 L154.597469,188.444043 C154.597469,197.002707 148.234401,203.999899 140.46084,203.999899 L62.222748,203.999899 C62.222748,203.999899 41.2615881,204.063814 37.3284282,199.017965 C34.7843198,195.753498 30.043832,192.943247 27.0182168,191.367732 C25.3672033,190.509251 24.2261301,190.012089 24.2261301,190.012089 L0.204395664,190.012089 L0.204395664,106.866917 C0.204395664,106.866917 21.391626,105.49727 34.2883631,98.6985144 C36.6628022,97.449773 38.7529051,96.0161712 40.382477,94.3767021 C50.86329,83.802313 66.5875393,54.4860659 68.7769268,39.1071735 C70.9597886,23.7287478 67.0266287,13.1543588 68.7769268,5.46864714 C70.5202331,-2.22406682 96.7248293,-7.9864833 104.590683,33.3377547 C108.01297,51.3135625 106.971648,65.9259378 104.696959,76.6987249 C104.186553,79.0972421 103.619745,81.3043634 103.031496,83.3200888 L154.271648,83.3200888 C157.658976,83.3200888 160.826759,84.398908 163.498119,86.2652513 C168.373317,89.6501574 171.632927,95.6399149 171.632927,102.424199 C171.632927,110.436684 167.084016,117.327402 160.684591,120.152125" id="Fill-1" fill="#FEC997" mask="url(#mask-2)"></path>
                    </g>
                    <path d="M94.6149323,98.9383582 L87.3626963,191.938358 C85.7157501,191.076813 84.577488,190.577876 84.577488,190.577876 L60.6149323,190.577876 L60.6149323,107.135918 C60.6149323,107.135918 81.7499669,105.761381 94.6149323,98.9383582" id="Fill-4" fill="#F1AF6F"></path>
                    <g id="Group-8" transform="translate(0.1558, 90.5633)">
                        <mask id="mask-4" fill="white">
                            <use xlink:href="#path-3"></use>
                        </mask>
                        <g id="Clip-7"></g>
                        <path d="M80.9130879,8.09257438 L80.9130879,104.789289 C80.9130879,109.262128 77.3039328,112.882331 72.8452086,112.882331 L8.06988103,112.882331 C3.05951897,112.882331 -0.740498276,108.352992 0.12257069,103.398269 L8.28960517,56.4406983 L16.937519,6.70108678 C17.6101914,2.82546694 20.9647086,0 24.8852948,0 L72.8452086,0 C77.3039328,0 80.9130879,3.62020248 80.9130879,8.09257438" id="Fill-6" fill="#5AA5E2" mask="url(#mask-4)"></path>
                    </g>
                    <g id="Group-11" transform="translate(0, 174.7691)">
                        <mask id="mask-6" fill="white">
                            <use xlink:href="#path-5"></use>
                        </mask>
                        <g id="Clip-10"></g>
                        <path d="M3.50357586,0 L0.122524138,19.4725645 C-0.740544828,24.4357742 3.05947241,28.9724032 8.0703,28.9724032 L72.8451621,28.9724032 C77.3038862,28.9724032 80.9130414,25.346 80.9130414,20.8659677 L80.9130414,0 L3.50357586,0 Z" id="Fill-9" fill="#5AA5E2" mask="url(#mask-6)"></path>
                    </g>
                    <path d="M38.1290625,179.28168 C38.1290625,184.252211 34.0995935,188.28168 29.1290625,188.28168 C24.1585316,188.28168 20.1290625,184.252211 20.1290625,179.28168 C20.1290625,174.311149 24.1585316,170.28168 29.1290625,170.28168 C34.0995935,170.28168 38.1290625,174.311149 38.1290625,179.28168" id="Fill-12" fill="#3683C2"></path>
                    <path d="M35.1514241,178.916072 C35.1514241,183.886603 31.1214814,187.916072 26.1514241,187.916072 C21.1808931,187.916072 17.1514241,183.886603 17.1514241,178.916072 C17.1514241,173.945541 21.1808931,169.916072 26.1514241,169.916072 C31.1214814,169.916072 35.1514241,173.945541 35.1514241,178.916072" id="Fill-14" fill="#6FABDB"></path>
                    <path d="M29.354132,170.912345 C30.4931627,172.19463 31.1879477,173.864657 31.1879477,175.697287 C31.1879477,179.731758 27.8442651,183.002788 23.7196006,183.002788 C20.8353192,183.002788 18.337503,181.400859 17.0928574,179.060041 C17.0928574,179.076255 17.0904894,179.092469 17.0904894,179.109146 C17.0904894,183.970987 21.1199584,187.912345 26.0904894,187.912345 C31.0610204,187.912345 35.0904894,183.970987 35.0904894,179.109146 C35.0904894,175.374862 32.7091812,172.191387 29.354132,170.912345" id="Fill-16" fill="#182C31" opacity="0.3"></path>
                    <g id="Group-20" transform="translate(130.6519, 0.2343)">
                        <mask id="mask-8" fill="white">
                            <use xlink:href="#path-7"></use>
                        </mask>
                        <g id="Clip-19"></g>
                        <path d="M100.633607,102.424385 C100.633607,95.6401016 97.3792664,89.6587469 92.5107871,86.2673053 L92.5107871,86.2649712 C92.4996166,86.2579689 92.4889115,86.2514334 92.4782065,86.2439643 C92.1561235,86.0208247 91.8289207,85.8065547 91.4928747,85.6062892 C91.482635,85.5997538 91.4714645,85.5946188 91.4612249,85.5885501 C91.164741,85.4125593 90.861741,85.2482389 90.5554829,85.0909208 C90.46193,85.0433053 90.3679115,84.9966233 90.2734276,84.9499414 C90.0095244,84.8210993 89.7423631,84.6987927 89.4714783,84.584422 C89.4039899,84.555946 89.3378977,84.5242023 89.2708747,84.49666 C88.9492571,84.3654838 88.6229853,84.2473785 88.2934553,84.1372092 C88.1705797,84.0961291 88.0463078,84.0592503 87.9220359,84.0205043 C87.6800083,83.9444128 87.435188,83.8776577 87.1889714,83.8146371 C87.0912295,83.7894288 86.9944184,83.7628201 86.8962111,83.739946 C86.5517871,83.6587195 86.2041051,83.5882297 85.8522341,83.5303442 C85.7731097,83.5172732 85.6925889,83.5084037 85.6134645,83.4967332 C85.321635,83.453319 85.0270129,83.4183076 84.730529,83.391232 C84.6258055,83.3814288 84.5220129,83.3720924 84.416824,83.3641565 C84.0463355,83.3380146 83.6739853,83.3198087 83.2979115,83.3198087 L67.7313447,83.3198087 L32.1332664,83.3198087 C32.2984968,82.7526233 32.4614,82.1662984 32.6229069,81.568303 C32.7099438,81.2447973 32.7960498,80.9138224 32.8816903,80.5809803 C32.9654691,80.2556073 33.0478516,79.9250993 33.1302341,79.5908568 C33.2107548,79.2640833 33.2908101,78.9396439 33.3690037,78.6044677 C33.5151512,77.9826645 33.6580406,77.3491908 33.7958101,76.6989117 L33.7934829,76.6989117 C36.0629576,65.9237904 37.1050728,51.3170169 33.6901558,33.3374746 C27.0855935,-1.41068101 7.53581014,-2.86482288 0.445330876,2.12594142 C7.45249677,5.81894828 14.6151189,14.8775753 18.1235889,33.3374746 C22.297635,55.3162572 19.814059,72.2631954 16.5666995,83.3198087 L16.5666995,91.1479002 L73.7322341,91.1479002 C79.8815982,91.1479002 85.0097917,96.0639735 85.0661097,102.231122 C85.0665751,102.295543 85.0670406,102.359964 85.0670406,102.424385 C85.0670406,110.43687 80.5243677,117.327589 74.1348378,120.152312 C77.2197594,123.19644 79.179718,127.596678 79.179718,132.486143 C79.179718,140.15785 74.3824507,146.629832 67.9366028,148.503644 C70.8092848,151.277951 72.6347318,155.337877 72.6347318,159.844083 L72.6347318,160.35525 C72.6347318,167.203488 68.4462571,173.015854 62.7497641,174.846719 C65.9766442,177.706921 68.0566857,182.078216 68.0566857,186.967681 L68.0566857,188.44423 C68.0566857,197.002893 61.702529,204.000047 53.9408885,204.000047 L69.5074553,204.000047 C77.2695613,204.000047 83.6232525,197.002893 83.6232525,188.44423 L83.6232525,186.967681 C83.6232525,182.078216 81.5427456,177.706921 78.3167963,174.846719 C84.0123585,173.015854 88.2012986,167.203488 88.2012986,160.35525 L88.2012986,159.844083 C88.2012986,155.337877 86.3758516,151.277951 83.5031696,148.503644 C89.9490175,146.629832 94.7467502,140.15785 94.7467502,132.486143 C94.7467502,127.596678 92.7867917,123.19644 89.7014046,120.152312 C96.0909346,117.327589 100.633607,110.43687 100.633607,102.424385" id="Fill-18" fill="#F1AF6F" mask="url(#mask-8)"></path>
                    </g>
                    <path d="M26.1871661,173.158852 C26.9440179,174.00284 26.6216871,175.572907 25.4669919,176.66557 C24.3118652,177.758234 22.762347,177.959922 22.0059268,177.115934 C21.249075,176.271502 21.5718373,174.701436 22.726101,173.609215 C23.8807962,172.516552 25.4303143,172.315307 26.1871661,173.158852" id="Fill-21" fill="#FFFFFF"></path>
                </g>
            </g>
        </g>
    </g>
</svg>